<svg xmlns="http://www.w3.org/2000/svg" xmlns:xlink="http://www.w3.org/1999/xlink" viewBox="0 0 80 100" version="1.1" x="0px" y="0px"><title>checkmark-filled</title><desc>Created with Sketch.</desc><g stroke="none" stroke-width="1" fill="none" fill-rule="evenodd"><g transform="translate(-13.000000, -13.000000)" fill="#000000"><path d="M53,13 C31.3187302,13 13,31.3187302 13,53 C13,74.6812698 31.3187302,93 53,93 C74.6812698,93 93,74.6812698 93,53 C93,31.3187302 74.6812698,13 53,13 L53,13 Z M70.7180952,39.7606349 L46.8196825,63.6552381 L36.2342857,53.0698413 C35.4901587,52.3257143 34.2850794,52.3257143 33.5409524,53.0698413 C32.7968254,53.8139683 32.7968254,55.0190476 33.5409524,55.7631746 L45.4749206,67.6971429 C45.831746,68.0539683 46.3180952,68.2533333 46.8196825,68.2533333 C47.3250794,68.2533333 47.8063492,68.0539683 48.1631746,67.6971429 L73.4063492,42.4539683 C74.1504762,41.7098413 74.1504762,40.5047619 73.4063492,39.7606349 C72.6622222,39.0165079 71.4622222,39.0165079 70.7180952,39.7606349 Z"/></g></g><text x="0" y="95" fill="#000000" font-size="5px" font-weight="bold" font-family="'Helvetica Neue', Helvetica, Arial-Unicode, Arial, Sans-serif">Created by AR Ehsan</text><text x="0" y="100" fill="#000000" font-size="5px" font-weight="bold" font-family="'Helvetica Neue', Helvetica, Arial-Unicode, Arial, Sans-serif">from the Noun Project</text></svg>