<svg xmlns="http://www.w3.org/2000/svg" xmlns:xlink="http://www.w3.org/1999/xlink" version="1.1" x="0px" y="0px" viewBox="0 0 100 125" enable-background="new 0 0 100 100" xml:space="preserve"><g><g><path fill-rule="evenodd" clip-rule="evenodd" fill="#000000" d="M72.44,88.134c-1.463,1.55-3.025,2.979-4.693,4.249    c-1.609,1.068-9.146,2.425-20.957,2.381c-12.038-0.044-18.754-1.486-20.341-2.254c-1.699-1.277-3.291-2.72-4.779-4.287    c-10.239,0.804-16.85,2.07-16.85,3.496c0,1.033,4.939,2.063,11.795,2.922l-0.193,0.078l3.501,1.414    c-0.047,0.049-0.072,0.1-0.072,0.153c0,1.214,12.206,3.214,27.28,3.214s27.311-2,27.311-3.214c0-0.049-0.025-0.096-0.065-0.141    l3.154-1.274c7.407-0.937,12.935-2.086,12.935-3.152C90.466,90.239,83.346,88.932,72.44,88.134z M53.915,41.619    c4.9-2.479,5.676-6.699,5.854-9.671c0.67-11.209-12.493-14.701-5.854-31.496c0.031-0.077-12.926,11.048-6.107,20.584    C56.926,33.788,53.857,41.649,53.915,41.619z M91.64,57.453c-4.69-1.646-7.48,2.768-8.681-2.948    c-0.019-0.089-0.104,0.056-0.233,0.357c0.016-0.063,0.036-0.125,0.036-0.188c0-2.896-15.965-5.244-35.658-5.244    s-35.657,2.347-35.657,5.244c0,0.044,0.015,0.088,0.022,0.132c-0.024,0.007-0.05,0.014-0.074,0.021    c-0.06,0.956-0.091,1.92-0.091,2.893c0,14.08,6.35,26.478,15.979,33.717c1.652,0.84,10.251,2.105,19.849,1.976    c11.159-0.152,18.681-1.07,19.671-2.099c3.787-2.881,7.049-6.573,9.619-10.843c4.886-5.182,17.735-2.177,20.187-13.447    C96.638,66.884,97.984,59.679,91.64,57.453z M82.621,55.114c-0.022,0.057-0.048,0.122-0.071,0.185    c-0.001-0.018-0.001-0.036-0.002-0.054C82.579,55.202,82.596,55.158,82.621,55.114z M46.961,59.918    c-17.809,0-32.245-1.894-32.245-4.229c0-2.335,14.437-4.229,32.245-4.229s32.245,1.894,32.245,4.229    C79.206,58.024,64.77,59.918,46.961,59.918z M93.196,68.375c-2.705,5.006-7.675,4.317-14.331,7.443    c-0.028,0.013,3.439-11.149,3.505-11.349c1.175-3.602,5.502-5.124,8.147-4.246C95.605,61.912,93.486,67.838,93.196,68.375z     M42.897,41.292c3.181-1.626,3.684-4.393,3.799-6.342c0.435-7.351-8.109-9.64-3.799-20.653c0.02-0.051-8.391,7.244-3.965,13.497    C44.851,36.156,42.859,41.311,42.897,41.292z"/></g></g><text x="0" y="115" fill="#000000" font-size="5px" font-weight="bold" font-family="'Helvetica Neue', Helvetica, Arial-Unicode, Arial, Sans-serif">Created by Roman Trilo</text><text x="0" y="120" fill="#000000" font-size="5px" font-weight="bold" font-family="'Helvetica Neue', Helvetica, Arial-Unicode, Arial, Sans-serif">from the Noun Project</text></svg>