<svg width="109" height="42" viewBox="0 0 109 42" fill="none" xmlns="http://www.w3.org/2000/svg">
<path d="M10.5996 13.1191L10.0234 16.1562H12.6797V17.4746H9.75977L9.08594 21H7.67969L8.37305 17.4746H5.58984L4.90625 21H3.5293L4.17383 17.4746H1.68359V16.1562H4.42773L5.0332 13.1191H2.40625V11.8105H5.26758L5.93164 8.35352H7.33789L6.68359 11.8105H9.48633L10.1602 8.35352H11.5371L10.8633 11.8105H13.373V13.1191H10.5996ZM5.83398 16.1562H8.62695L9.21289 13.1191H6.42969L5.83398 16.1562ZM41.3887 21H39.5918V15.1406C38.6217 15.4857 37.8112 15.7233 37.1602 15.8535C36.5091 15.9772 35.8451 16.0391 35.168 16.0391C33.8138 16.0391 32.7754 15.7266 32.0527 15.1016C31.3301 14.4701 30.9688 13.5749 30.9688 12.416V6.72266H32.7656V12.1621C32.7656 12.9303 32.9674 13.5065 33.3711 13.8906C33.7747 14.2682 34.4323 14.457 35.3438 14.457C35.9622 14.457 36.5579 14.4082 37.1309 14.3105C37.7103 14.2129 38.5306 13.9883 39.5918 13.6367V6.72266H41.3887V21ZM46.2949 6.72266H47.9746V14.5645C47.9746 15.1178 47.9583 15.8503 47.9258 16.7617C47.8932 17.6732 47.8607 18.2656 47.8281 18.5391H47.916L55.7676 6.72266H57.7695V21H56.0898V13.2363C56.0898 12.5592 56.1126 11.7715 56.1582 10.873C56.2038 9.9681 56.2363 9.38216 56.2559 9.11523H56.168L48.2969 21H46.2949V6.72266ZM67.168 21H65.3613V8.30469H60.8984V6.72266H71.6016V8.30469H67.168V21ZM83.0508 21L81.332 16.5762H75.668L73.9688 21H72.1523L77.7285 6.66406H79.3496L84.916 21H83.0508ZM80.7949 14.9844L79.1934 10.6582L78.5098 8.51953C78.3145 9.30078 78.1094 10.0137 77.8945 10.6582L76.2734 14.9844H80.7949ZM105.75 13.8418C105.75 16.1465 105.197 17.9499 104.09 19.252C102.983 20.5475 101.434 21.1953 99.4414 21.1953C97.4883 21.1953 95.9551 20.5996 94.8418 19.4082C93.735 18.2168 93.1426 16.5273 93.0645 14.3398H89.6855V21H87.8887V6.72266H89.6855V12.7578H93.1035C93.2533 10.7461 93.875 9.19987 94.9688 8.11914C96.0625 7.03841 97.5404 6.49805 99.4023 6.49805C101.395 6.49805 102.951 7.14583 104.07 8.44141C105.19 9.73698 105.75 11.5371 105.75 13.8418ZM94.9492 13.8418C94.9492 15.7298 95.3203 17.1686 96.0625 18.1582C96.8112 19.1478 97.918 19.6426 99.3828 19.6426C100.854 19.6426 101.967 19.1543 102.723 18.1777C103.484 17.2012 103.865 15.7559 103.865 13.8418C103.865 11.9342 103.491 10.4987 102.742 9.53516C102 8.5651 100.893 8.08008 99.4219 8.08008C97.944 8.08008 96.8275 8.57161 96.0723 9.55469C95.3236 10.5312 94.9492 11.9603 94.9492 13.8418Z" fill="white"/>
<path d="M21.668 15.5215L18.3281 21H14.9688L19.0312 14.7207C18.224 14.3952 17.6055 13.8939 17.1758 13.2168C16.7461 12.5332 16.5312 11.7292 16.5312 10.8047C16.5312 9.49609 16.9935 8.49023 17.918 7.78711C18.849 7.07747 20.1836 6.72266 21.9219 6.72266H26.5703V21H23.543V15.5215H21.668ZM23.543 9.20312H22.0488C21.2676 9.20312 20.6621 9.3431 20.2324 9.62305C19.8027 9.90299 19.5879 10.3685 19.5879 11.0195C19.5879 11.651 19.7962 12.1491 20.2129 12.5137C20.6296 12.8783 21.2676 13.0605 22.127 13.0605H23.543V9.20312Z" fill="#FF7070"/>
<path d="M4.43115 31.9048C3.5861 31.9048 2.92188 32.1877 2.43848 32.7534C1.95508 33.3192 1.71338 34.0926 1.71338 35.0737C1.71338 36.0871 1.94792 36.8695 2.41699 37.4209C2.88607 37.9688 3.55387 38.2427 4.42041 38.2427C4.979 38.2427 5.60742 38.1388 6.30566 37.9312V38.7905C5.97266 38.9123 5.65218 38.9946 5.34424 39.0376C5.0363 39.0841 4.6818 39.1074 4.28076 39.1074C3.12419 39.1074 2.23258 38.7565 1.60596 38.0547C0.98291 37.3493 0.671387 36.3521 0.671387 35.063C0.671387 34.2537 0.819987 33.5448 1.11719 32.936C1.41797 32.3273 1.85303 31.8582 2.42236 31.5288C2.99528 31.1994 3.66846 31.0347 4.44189 31.0347C5.27262 31.0347 5.99593 31.1886 6.61182 31.4966L6.21436 32.3345C5.58773 32.048 4.99333 31.9048 4.43115 31.9048ZM8.56904 31.1475H10.8088C11.8615 31.1475 12.6206 31.305 13.0861 31.6201C13.5552 31.9316 13.7897 32.4222 13.7897 33.0918C13.7897 33.5573 13.6626 33.9422 13.4084 34.2466C13.1542 34.5474 12.7836 34.7425 12.2966 34.832V34.8857C12.9017 34.9896 13.3457 35.1991 13.6286 35.5142C13.9151 35.8293 14.0583 36.2464 14.0583 36.7656C14.0583 37.4674 13.8184 38.0153 13.3386 38.4092C12.8588 38.8031 12.1892 39 11.3298 39H8.56904V31.1475ZM9.55732 34.4883H11.0075C11.6234 34.4883 12.071 34.3898 12.3503 34.1929C12.6296 33.9959 12.7692 33.6665 12.7692 33.2046C12.7692 32.7749 12.6153 32.4652 12.3073 32.2754C12.003 32.0856 11.5196 31.9907 10.8571 31.9907H9.55732V34.4883ZM9.55732 35.3154V38.1621H11.1418C11.772 38.1621 12.2393 38.0404 12.5437 37.7969C12.848 37.5534 13.0002 37.1846 13.0002 36.6904C13.0002 36.2214 12.8391 35.8758 12.5168 35.6538C12.1945 35.4282 11.7111 35.3154 11.0666 35.3154H9.55732ZM23.1269 35.063C23.1269 36.3198 22.8082 37.3081 22.1708 38.0278C21.537 38.7476 20.649 39.1074 19.5067 39.1074C18.3502 39.1074 17.455 38.7547 16.8212 38.0493C16.191 37.3403 15.8759 36.3413 15.8759 35.0522C15.8759 33.7739 16.1892 32.7839 16.8158 32.082C17.446 31.3766 18.3466 31.0239 19.5175 31.0239C20.6562 31.0239 21.5424 31.382 22.1762 32.0981C22.81 32.8107 23.1269 33.799 23.1269 35.063ZM16.9179 35.063C16.9179 36.1014 17.1381 36.8927 17.5785 37.437C18.0189 37.9813 18.6617 38.2534 19.5067 38.2534C20.3482 38.2534 20.9874 37.9849 21.4242 37.4478C21.8611 36.9106 22.0795 36.1157 22.0795 35.063C22.0795 34.0138 21.8629 33.2243 21.4296 32.6943C20.9963 32.1608 20.359 31.894 19.5175 31.894C18.6653 31.894 18.0189 32.1644 17.5785 32.7051C17.1381 33.2422 16.9179 34.0282 16.9179 35.063ZM30.5519 36.7012C30.5519 37.4746 30.3191 38.0511 29.8536 38.4307C29.3881 38.8102 28.6756 39 27.7159 39H25.4171V31.1475H30.0792V32.0176H26.4054V34.4668H27.5709C28.5735 34.4668 29.3201 34.644 29.8106 34.9985C30.3048 35.353 30.5519 35.9206 30.5519 36.7012ZM26.4054 38.1514H27.6139C28.287 38.1514 28.774 38.0386 29.0748 37.813C29.3792 37.5838 29.5313 37.2132 29.5313 36.7012C29.5313 36.1999 29.3738 35.8454 29.0587 35.6377C28.7436 35.43 28.2083 35.3262 27.4527 35.3262H26.4054V38.1514ZM39.5882 35.063C39.5882 36.3198 39.2695 37.3081 38.6321 38.0278C37.9983 38.7476 37.1103 39.1074 35.9681 39.1074C34.8115 39.1074 33.9163 38.7547 33.2825 38.0493C32.6523 37.3403 32.3372 36.3413 32.3372 35.0522C32.3372 33.7739 32.6505 32.7839 33.2771 32.082C33.9074 31.3766 34.8079 31.0239 35.9788 31.0239C37.1175 31.0239 38.0037 31.382 38.6375 32.0981C39.2713 32.8107 39.5882 33.799 39.5882 35.063ZM33.3792 35.063C33.3792 36.1014 33.5994 36.8927 34.0398 37.437C34.4803 37.9813 35.123 38.2534 35.9681 38.2534C36.8095 38.2534 37.4487 37.9849 37.8855 37.4478C38.3224 36.9106 38.5408 36.1157 38.5408 35.063C38.5408 34.0138 38.3242 33.2243 37.8909 32.6943C37.4577 32.1608 36.8203 31.894 35.9788 31.894C35.1266 31.894 34.4803 32.1644 34.0398 32.7051C33.5994 33.2422 33.3792 34.0282 33.3792 35.063ZM48.0605 41.0679H47.1152V39H41.7119V41.0679H40.7666V38.1191H41.3735C41.9035 37.2168 42.3618 36.1229 42.7485 34.8374C43.1353 33.5519 43.3626 32.3219 43.4307 31.1475H47.0615V38.1191H48.0605V41.0679ZM46.0786 38.1191V32.0391H44.3008C44.2327 32.9307 44.0143 33.9709 43.6455 35.1597C43.2803 36.3485 42.8703 37.335 42.4155 38.1191H46.0786ZM50.4313 39.1074C50.0267 39.1074 49.6704 39.0537 49.3625 38.9463V38.0117C49.6883 38.1585 50.0339 38.2319 50.3991 38.2319C50.7823 38.2319 51.0902 38.1424 51.3229 37.9634C51.5593 37.7843 51.7867 37.4585 52.0051 36.9858L48.9812 31.1475H50.0661L52.3112 35.5142C52.4007 35.6825 52.4777 35.8687 52.5422 36.0728H52.5852L52.6281 35.9438L52.7946 35.5034L54.6745 31.1475H55.7219L53.2136 36.7656C52.9164 37.4316 52.646 37.9168 52.4025 38.2212C52.159 38.5256 51.8798 38.7493 51.5646 38.8926C51.2531 39.0358 50.8754 39.1074 50.4313 39.1074ZM66.4791 39H65.2867L61.7364 35.02V39H60.7481V31.1475H61.7364V34.9502L65.2008 31.1475H66.3233L62.9127 34.9609L66.4791 39ZM74.1028 39H73.1145V35.3369H69.0862V39H68.0979V31.1475H69.0862V34.4668H73.1145V31.1475H74.1028V39ZM76.812 31.1475H77.7358V35.4604C77.7358 35.7648 77.7269 36.1676 77.709 36.6689C77.6911 37.1702 77.6732 37.4961 77.6553 37.6465H77.7036L82.022 31.1475H83.123V39H82.1992V34.73C82.1992 34.3576 82.2118 33.9243 82.2368 33.4302C82.2619 32.9325 82.2798 32.6102 82.2905 32.4634H82.2422L77.9131 39H76.812V31.1475ZM90.2365 31.1475V32.0283H86.7937V39H85.8054V31.1475H90.2365ZM96.6732 39L95.7279 36.5669H92.6127L91.6781 39H90.6791L93.746 31.1152H94.6376L97.6991 39H96.6732ZM95.4325 35.6914L94.5517 33.312L94.1757 32.1357C94.0683 32.5654 93.9555 32.9575 93.8373 33.312L92.9457 35.6914H95.4325ZM102.798 39L100.21 32.1143H100.167C100.22 32.6872 100.247 33.3944 100.247 34.2358V39H99.3341V31.1475H100.795L103.217 37.582H103.26L105.726 31.1475H107.176V39H106.198V34.1714C106.198 33.6343 106.223 32.9521 106.274 32.125H106.231L103.609 39H102.798Z" fill="white"/>
</svg>
